<svg width="355" height="322" viewBox="0 0 355 322" fill="none" xmlns="http://www.w3.org/2000/svg">
<path fill-rule="evenodd" clip-rule="evenodd" d="M31.5931 166.176C35.0074 163.638 37.0938 161.735 40.5081 159.07C44.4916 155.01 46.7676 152.598 50.1819 149.553V258.935C84.5145 259.062 213.119 258.935 252.383 258.935C241.381 244.977 245.744 250.687 234.173 236.221C218.24 236.221 184.667 236.348 168.923 236.221C137.056 236.221 104.81 236.094 73.1336 236.221C71.2365 218.076 73.5128 161.862 73.1336 136.61C73.1336 132.93 73.1336 132.93 73.1336 128.616C73.1336 124.936 75.5992 125.57 85.2733 114.657L152.041 49.0536L193.771 87.2482C202.876 72.5286 200.41 76.716 205.721 67.7068L151.472 16.9492L14.332 149.172C30.0756 165.542 16.6083 153.36 31.5931 166.176Z" fill="#2B6B82"/>
<path d="M110.867 227.217H103.918V194.223H89.4721V227.217H82.5234V188.094H110.867V227.217ZM125.859 212.799V227.217H118.911V188.112C124.026 187.921 126.743 187.821 127.063 187.821C133.165 187.821 137.661 188.76 140.559 190.648C143.452 192.535 144.902 195.5 144.902 199.54C144.902 208.504 139.602 212.99 129.015 212.99C128.213 212.99 127.164 212.927 125.859 212.799ZM125.859 194.113V206.643C127.054 206.753 127.985 206.807 128.641 206.807C131.815 206.807 134.132 206.288 135.599 205.248C137.058 204.199 137.788 202.476 137.788 200.068C137.788 196.028 134.515 194.003 127.975 194.003C126.991 194.003 126.288 194.04 125.859 194.113ZM149.27 207.31C149.27 201.755 150.793 197.04 153.848 193.183C156.903 189.316 160.997 187.383 166.131 187.383C171.704 187.383 175.99 189.116 178.981 192.58C181.973 196.037 183.468 200.953 183.468 207.31C183.468 213.684 181.908 218.699 178.79 222.375C175.679 226.04 171.266 227.873 165.566 227.873C160.258 227.873 156.218 226.022 153.437 222.328C150.655 218.636 149.27 213.629 149.27 207.31ZM156.493 207.317C156.493 212.079 157.277 215.662 158.845 218.07C160.405 220.487 162.647 221.691 165.566 221.691C169.041 221.691 171.686 220.477 173.51 218.06C175.333 215.635 176.245 212.061 176.245 207.317C176.245 198.153 172.871 193.566 166.131 193.566C162.995 193.566 160.605 194.806 158.963 197.278C157.313 199.758 156.493 203.105 156.493 207.317ZM196.498 203.405C198.424 203.232 200.119 203.142 201.578 203.142C206.138 203.142 209.685 204.189 212.22 206.297C214.765 208.394 216.032 211.412 216.032 215.352C216.032 218.973 214.765 221.854 212.22 223.998C209.685 226.14 206.138 227.217 201.578 227.217H189.605V188.094H213.242V194.113H196.498V203.405ZM196.498 221.416C197.94 221.526 199.189 221.581 200.256 221.581C203.311 221.581 205.5 221.006 206.822 219.866C208.144 218.726 208.811 217.093 208.811 214.951C208.811 213.081 208.208 211.577 206.995 210.437C205.792 209.296 203.612 208.722 200.466 208.722C199.226 208.722 197.903 208.795 196.498 208.932V221.416ZM229.284 194.223V203.415H242.252V209.324H229.284V221.033H247.012V227.217H222.335V188.094H247.34V194.223H229.284ZM282.204 227.217H275.256V194.223H260.81V227.217H253.862V188.094H282.204V227.217ZM297.197 212.799V227.217H290.249V188.112C295.364 187.921 298.082 187.821 298.401 187.821C304.503 187.821 308.998 188.76 311.897 190.648C314.789 192.535 316.239 195.5 316.239 199.54C316.239 208.504 310.94 212.99 300.353 212.99C299.551 212.99 298.502 212.927 297.197 212.799ZM297.197 194.113V206.643C298.392 206.753 299.323 206.807 299.979 206.807C303.153 206.807 305.469 206.288 306.937 205.248C308.395 204.199 309.126 202.476 309.126 200.068C309.126 196.028 305.852 194.003 299.313 194.003C298.329 194.003 297.626 194.04 297.197 194.113ZM320.608 207.31C320.608 201.755 322.13 197.04 325.186 193.183C328.241 189.316 332.335 187.383 337.469 187.383C343.042 187.383 347.327 189.116 350.318 192.58C353.31 196.037 354.806 200.953 354.806 207.31C354.806 213.684 353.246 218.699 350.127 222.375C347.017 226.04 342.604 227.873 336.903 227.873C331.596 227.873 327.556 226.022 324.775 222.328C321.993 218.636 320.608 213.629 320.608 207.31ZM327.831 207.317C327.831 212.079 328.615 215.662 330.183 218.07C331.743 220.487 333.985 221.691 336.903 221.691C340.379 221.691 343.024 220.477 344.847 218.06C346.671 215.635 347.583 212.061 347.583 207.317C347.583 198.153 344.209 193.566 337.469 193.566C334.333 193.566 331.943 194.806 330.301 197.278C328.65 199.758 327.831 203.105 327.831 207.317Z" fill="#09A2B0"/>
<path d="M214.281 130.755H259.535V100.047H214.281V130.755ZM241.128 110.283C241.128 107.953 239.238 106.064 236.91 106.064C234.578 106.064 232.687 107.953 232.687 110.283C232.687 111.869 233.565 113.249 234.857 113.97L232.687 124.739H241.128L238.959 113.97C240.252 113.249 241.128 111.869 241.128 110.283Z" fill="#09A2B0"/>
<path d="M254.776 90.0131C254.776 80.1627 246.761 72.1484 236.913 72.1484C227.062 72.1484 219.047 80.1627 219.047 90.0131V96.2754H224.92V90.0131C224.92 83.401 230.301 78.0222 236.913 78.0222C243.525 78.0222 248.903 83.401 248.903 90.0131V96.2754H254.776V90.0131Z" fill="#09A2B0"/>
<path d="M64.5495 289.102H61.0431V272.458H53.7564V289.102H50.25V269.366H64.5495V289.102ZM72.1118 281.828V289.102H68.6057V269.376C71.1871 269.279 72.5573 269.228 72.7182 269.228C75.7964 269.228 78.0641 269.702 79.5271 270.653C80.9863 271.606 81.7174 273.102 81.7174 275.14C81.7174 279.662 79.0451 281.926 73.7039 281.926C73.2982 281.926 72.7691 281.893 72.1118 281.828ZM72.1118 272.402V278.723C72.7143 278.779 73.1835 278.807 73.5143 278.807C75.1161 278.807 76.2841 278.544 77.025 278.02C77.7616 277.491 78.1289 276.621 78.1289 275.407C78.1289 273.368 76.4777 272.347 73.1792 272.347C72.6817 272.347 72.3283 272.365 72.1118 272.402ZM83.9199 279.06C83.9199 276.258 84.6891 273.88 86.2303 271.933C87.7711 269.982 89.8367 269.008 92.427 269.008C95.2377 269.008 97.4008 269.882 98.9094 271.629C100.418 273.374 101.173 275.852 101.173 279.06C101.173 282.275 100.387 284.806 98.8133 286.659C97.2438 288.509 95.0169 289.433 92.1413 289.433C89.465 289.433 87.4263 288.5 86.0238 286.637C84.6199 284.773 83.9199 282.248 83.9199 279.06ZM87.5647 279.064C87.5647 281.465 87.9593 283.273 88.7511 284.488C89.5385 285.708 90.6697 286.314 92.1413 286.314C93.8944 286.314 95.2291 285.702 96.1495 284.483C97.0685 283.259 97.5295 281.456 97.5295 279.064C97.5295 274.441 95.8273 272.127 92.427 272.127C90.8449 272.127 89.6389 272.752 88.8106 273.998C87.9776 275.25 87.5647 276.938 87.5647 279.064ZM107.775 272.458V277.095H114.317V280.077H107.775V285.984H116.719V289.102H104.269V269.366H116.884V272.458H107.775ZM134.61 289.186C134.352 289.241 133.966 289.268 133.46 289.268C132.236 289.268 131.311 288.974 130.686 288.38C130.06 287.786 129.623 286.816 129.37 285.468C129.029 283.582 128.417 282.224 127.539 281.397C126.665 280.573 125.423 280.159 123.812 280.159H123.651V289.102H120.173V269.366H123.651V277.178H123.922C125.488 277.178 126.706 276.833 127.58 276.148C128.45 275.462 129.021 274.399 129.287 272.959C129.54 271.647 129.936 270.7 130.483 270.111C131.026 269.523 131.909 269.228 133.129 269.228C133.621 269.228 134.03 269.251 134.362 269.298V272.402C134.27 272.384 134.076 272.374 133.783 272.374C133.377 272.374 133.091 272.472 132.926 272.66C132.76 272.849 132.605 273.286 132.462 273.98C132.217 275.14 131.693 276.138 130.897 276.975C130.097 277.813 129.09 278.369 127.874 278.646C129.158 279.022 130.184 279.662 130.958 280.554C131.729 281.446 132.272 282.698 132.591 284.304C132.76 285.11 132.936 285.61 133.119 285.804C133.303 285.998 133.626 286.094 134.085 286.094C134.275 286.094 134.448 286.075 134.61 286.038V289.186ZM146.402 272.458V289.102H142.896V272.458H136.63V269.366H152.971V272.458H146.402ZM167.577 277.091C168.548 277.003 169.404 276.956 170.14 276.956C172.441 276.956 174.23 277.487 175.509 278.548C176.792 279.607 177.431 281.13 177.431 283.118C177.431 284.943 176.792 286.398 175.509 287.478C174.23 288.56 172.441 289.102 170.14 289.102H164.099V269.366H176.024V272.402H167.577V277.091ZM167.577 286.176C168.304 286.232 168.934 286.259 169.473 286.259C171.014 286.259 172.118 285.969 172.785 285.394C173.453 284.82 173.788 283.995 173.788 282.914C173.788 281.971 173.484 281.212 172.873 280.638C172.265 280.063 171.165 279.773 169.579 279.773C168.952 279.773 168.285 279.81 167.577 279.879V286.176ZM184.117 272.458V277.095H190.659V280.077H184.117V285.984H193.061V289.102H180.611V269.366H193.226V272.458H184.117ZM205.191 278.305C206.332 278.719 207.202 279.354 207.81 280.219C208.412 281.079 208.716 282.109 208.716 283.306C208.716 285.206 208.045 286.706 206.702 287.796C205.357 288.886 203.522 289.433 201.185 289.433C198.844 289.433 196.841 288.927 195.19 287.915L196.723 284.851C198.13 285.9 199.676 286.425 201.354 286.425C202.542 286.425 203.467 286.145 204.13 285.588C204.796 285.031 205.128 284.281 205.128 283.332C205.128 282.165 204.736 281.277 203.959 280.675C203.181 280.071 202.064 279.773 200.609 279.773C199.819 279.773 199.142 279.799 198.586 279.855V276.984C199.285 277.058 199.989 277.095 200.689 277.095C201.885 277.095 202.809 276.856 203.462 276.372C204.111 275.895 204.438 275.205 204.438 274.307C204.438 273.552 204.148 272.978 203.563 272.582C202.983 272.186 202.234 271.988 201.313 271.988C200.09 271.988 198.733 272.384 197.247 273.176L196.046 270.277C198.034 269.43 199.883 269.008 201.589 269.008C203.559 269.008 205.114 269.453 206.259 270.345C207.4 271.243 207.971 272.49 207.971 274.086C207.971 275.066 207.722 275.935 207.221 276.691C206.724 277.444 206.048 277.983 205.191 278.305ZM210.956 279.06C210.956 276.258 211.725 273.88 213.266 271.933C214.807 269.982 216.872 269.008 219.463 269.008C222.273 269.008 224.436 269.882 225.945 271.629C227.454 273.374 228.208 275.852 228.208 279.06C228.208 282.275 227.422 284.806 225.849 286.659C224.279 288.509 222.053 289.433 219.177 289.433C216.501 289.433 214.462 288.5 213.06 286.637C211.656 284.773 210.956 282.248 210.956 279.06ZM214.6 279.064C214.6 281.465 214.995 283.273 215.787 284.488C216.574 285.708 217.705 286.314 219.177 286.314C220.93 286.314 222.265 285.702 223.185 284.483C224.104 283.259 224.565 281.456 224.565 279.064C224.565 274.441 222.863 272.127 219.463 272.127C217.881 272.127 216.675 272.752 215.846 273.998C215.013 275.25 214.6 276.938 214.6 279.064ZM245.604 289.102H242.098V272.458H234.811V289.102H231.305V269.366H245.604V289.102ZM261.254 289.102L259.786 285.1H253.024L251.676 289.102H247.756L255.651 269.09H257.169L265.119 289.102H261.254ZM256.396 275.135L254.018 282.422H258.761L256.396 275.135ZM280.774 270.415L279.348 273.313C278.557 272.522 277.3 272.127 275.585 272.127C273.859 272.127 272.493 272.839 271.477 274.27C270.46 275.697 269.954 277.421 269.954 279.442C269.954 281.465 270.428 283.112 271.371 284.396C272.314 285.675 273.63 286.314 275.318 286.314C277.176 286.314 278.625 285.651 279.67 284.327L281.326 287.17C279.886 288.68 277.788 289.433 275.033 289.433C272.255 289.433 270.106 288.523 268.587 286.706C267.069 284.888 266.31 282.418 266.31 279.303C266.31 276.409 267.148 273.972 268.822 271.984C270.501 270 272.682 269.008 275.369 269.008C277.594 269.008 279.399 269.476 280.774 270.415ZM295.509 289.102V280.214H287.642V289.102H284.136V269.366H287.642V277.095H295.509V269.366H298.96V289.102H295.509ZM302.078 279.06C302.078 276.258 302.847 273.88 304.388 271.933C305.929 269.982 307.994 269.008 310.584 269.008C313.395 269.008 315.558 269.882 317.067 271.629C318.575 273.374 319.33 275.852 319.33 279.06C319.33 282.275 318.544 284.806 316.971 286.659C315.401 288.509 313.175 289.433 310.299 289.433C307.622 289.433 305.584 288.5 304.181 286.637C302.777 284.773 302.078 282.248 302.078 279.06ZM305.722 279.064C305.722 281.465 306.117 283.273 306.908 284.488C307.696 285.708 308.827 286.314 310.299 286.314C312.052 286.314 313.387 285.702 314.307 284.483C315.226 283.259 315.687 281.456 315.687 279.064C315.687 274.441 313.985 272.127 310.584 272.127C309.002 272.127 307.796 272.752 306.968 273.998C306.135 275.25 305.722 276.938 305.722 279.064ZM334.71 272.458H325.96V289.102H322.427V269.366H334.71V272.458ZM336.665 279.06C336.665 276.258 337.434 273.88 338.975 271.933C340.516 269.982 342.582 269.008 345.172 269.008C347.983 269.008 350.146 269.882 351.654 271.629C353.163 273.374 353.918 275.852 353.918 279.06C353.918 282.275 353.132 284.806 351.558 286.659C349.989 288.509 347.762 289.433 344.887 289.433C342.21 289.433 340.172 288.5 338.769 286.637C337.365 284.773 336.665 282.248 336.665 279.06ZM340.31 279.064C340.31 281.465 340.705 283.273 341.496 284.488C342.284 285.708 343.415 286.314 344.887 286.314C346.64 286.314 347.974 285.702 348.895 284.483C349.814 283.259 350.275 281.456 350.275 279.064C350.275 274.441 348.572 272.127 345.172 272.127C343.59 272.127 342.384 272.752 341.555 273.998C340.723 275.25 340.31 276.938 340.31 279.064ZM64.5495 321.155H61.0431V304.51H53.7564V321.155H50.25V301.418H64.5495V321.155ZM72.1118 313.881V321.155H68.6057V301.428C71.1871 301.332 72.5573 301.281 72.7182 301.281C75.7964 301.281 78.0641 301.754 79.5271 302.706C80.9863 303.659 81.7174 305.155 81.7174 307.192C81.7174 311.715 79.0451 313.978 73.7039 313.978C73.2982 313.978 72.7691 313.946 72.1118 313.881ZM72.1118 304.455V310.776C72.7143 310.831 73.1835 310.86 73.5143 310.86C75.1161 310.86 76.2841 310.597 77.025 310.072C77.7616 309.543 78.1289 308.674 78.1289 307.459C78.1289 305.421 76.4777 304.4 73.1792 304.4C72.6817 304.4 72.3283 304.418 72.1118 304.455ZM83.9199 311.113C83.9199 308.31 84.6891 305.933 86.2303 303.986C87.7711 302.034 89.8367 301.061 92.427 301.061C95.2377 301.061 97.4008 301.934 98.9094 303.682C100.418 305.426 101.173 307.905 101.173 311.113C101.173 314.328 100.387 316.858 98.8133 318.712C97.2438 320.561 95.0169 321.486 92.1413 321.486C89.465 321.486 87.4263 320.553 86.0238 318.689C84.6199 316.826 83.9199 314.301 83.9199 311.113ZM87.5647 311.117C87.5647 313.517 87.9593 315.326 88.7511 316.54C89.5385 317.76 90.6697 318.367 92.1413 318.367C93.8944 318.367 95.2291 317.755 96.1495 316.536C97.0685 315.312 97.5295 313.509 97.5295 311.117C97.5295 306.494 95.8273 304.179 92.427 304.179C90.8449 304.179 89.6389 304.804 88.8106 306.051C87.9776 307.302 87.5647 308.991 87.5647 311.117ZM117.795 302.467L116.369 305.366C115.578 304.575 114.321 304.179 112.606 304.179C110.88 304.179 109.514 304.892 108.498 306.323C107.481 307.749 106.975 309.474 106.975 311.495C106.975 313.517 107.449 315.165 108.392 316.448C109.335 317.728 110.651 318.367 112.339 318.367C114.197 318.367 115.646 317.704 116.691 316.379L118.346 319.222C116.907 320.732 114.809 321.486 112.054 321.486C109.276 321.486 107.126 320.575 105.608 318.759C104.09 316.94 103.33 314.47 103.33 311.356C103.33 308.462 104.169 306.024 105.843 304.037C107.522 302.053 109.702 301.061 112.39 301.061C114.615 301.061 116.42 301.528 117.795 302.467ZM129.715 304.51V321.155H126.209V304.51H119.943V301.418H136.284V304.51H129.715ZM142.6 313.881V321.155H139.094V301.428C141.676 301.332 143.046 301.281 143.207 301.281C146.285 301.281 148.553 301.754 150.016 302.706C151.475 303.659 152.206 305.155 152.206 307.192C152.206 311.715 149.534 313.978 144.192 313.978C143.787 313.978 143.258 313.946 142.6 313.881ZM142.6 304.455V310.776C143.203 310.831 143.672 310.86 144.003 310.86C145.605 310.86 146.773 310.597 147.514 310.072C148.25 309.543 148.618 308.674 148.618 307.459C148.618 305.421 146.966 304.4 143.668 304.4C143.17 304.4 142.817 304.418 142.6 304.455ZM166.941 321.155L165.473 317.153H158.711L157.364 321.155H153.443L161.338 301.142H162.856L170.806 321.155H166.941ZM162.083 307.188L159.705 314.475H164.448L162.083 307.188ZM184.308 321.155V312.266H176.442V321.155H172.935V301.418H176.442V309.148H184.308V301.418H187.759V321.155H184.308ZM205.341 302.467L203.915 305.366C203.124 304.575 201.868 304.179 200.153 304.179C198.426 304.179 197.061 304.892 196.044 306.323C195.027 307.749 194.521 309.474 194.521 311.495C194.521 313.517 194.995 315.165 195.938 316.448C196.881 317.728 198.197 318.367 199.885 318.367C201.743 318.367 203.192 317.704 204.237 316.379L205.893 319.222C204.454 320.732 202.355 321.486 199.6 321.486C196.822 321.486 194.673 320.575 193.154 318.759C191.636 316.94 190.877 314.47 190.877 311.356C190.877 308.462 191.715 306.024 193.389 304.037C195.069 302.053 197.249 301.061 199.936 301.061C202.162 301.061 203.966 301.528 205.341 302.467ZM217.261 304.51V321.155H213.755V304.51H207.489V301.418H223.83V304.51H217.261ZM232.682 321.155H226.64V301.428C229.741 301.294 231.605 301.226 232.235 301.226C234.274 301.226 235.878 301.667 237.044 302.546C238.207 303.429 238.787 304.68 238.787 306.309C238.787 307.892 237.958 309.129 236.303 310.017C238.75 310.86 239.973 312.625 239.973 315.307C239.973 317.106 239.297 318.528 237.94 319.577C236.583 320.631 234.829 321.155 232.682 321.155ZM230.147 304.249V308.954C230.845 308.991 231.416 309.009 231.858 309.009C234.139 309.009 235.28 308.154 235.28 306.437C235.28 304.915 234.237 304.151 232.153 304.151C231.614 304.151 230.947 304.183 230.147 304.249ZM230.147 311.701V318.228C230.859 318.285 231.439 318.312 231.89 318.312C233.353 318.312 234.462 318.063 235.207 317.567C235.958 317.065 236.33 316.168 236.33 314.866C236.33 313.762 236.007 312.952 235.364 312.432C234.719 311.917 233.57 311.66 231.913 311.66C231.283 311.66 230.694 311.674 230.147 311.701ZM254.718 321.155L253.25 317.153H246.488L245.14 321.155H241.22L249.115 301.142H250.633L258.583 321.155H254.718ZM249.86 307.188L247.482 314.475H252.225L249.86 307.188Z" fill="#2B6B82"/>
<path d="M224.553 143.716C202.41 136.86 190.024 113.352 196.878 91.2159C203.733 69.0774 227.234 56.6872 249.378 63.5423C271.515 70.3967 283.903 93.899 277.048 116.04C270.194 138.175 246.69 150.57 224.553 143.716ZM295.603 122.6C296.156 120.814 296.607 119.019 296.992 117.226L309.74 117.789L310.704 95.9578L297.71 95.3768C296.812 89.3141 295.012 83.4561 292.416 77.9787L303.223 70.3681L290.646 52.493L279.699 60.1997C275.447 56.0557 270.551 52.4897 265.107 49.6765L269.09 36.811L248.215 30.3477L244.232 43.2131C238.449 42.4963 232.699 42.6131 227.123 43.4984L222.626 30.8899L202.034 38.2329L206.486 50.6984C202.657 52.8532 199.052 55.4055 195.751 58.342L186.289 49.526L171.702 67.0502L181.857 76.3454C180.093 79.6794 179.018 82.4113 177.862 86.1464C177.462 87.4338 177.125 88.7295 176.812 90.0274L164.188 89.4643L163.223 111.303L175.567 111.849C176.34 118.129 178.062 124.204 180.653 129.887L170.703 136.886L183.279 154.763L193.077 147.872C197.488 152.3 202.62 156.093 208.362 159.062L204.837 170.448L225.712 176.913L229.239 165.526C235.34 166.286 241.408 166.108 247.277 165.084L251.301 176.367L271.888 169.026L267.805 157.58C271.751 155.283 275.436 152.531 278.798 149.391L288.567 156.862L301.846 139.509L291.877 131.881C293.34 128.936 294.599 125.841 295.603 122.6Z" fill="#2B6B82" stroke="#09A2B0" stroke-width="2.02809" stroke-miterlimit="10"/>
<path d="M88.4143 124.207L132.608 168.568L156.716 141.942L161.239 146.036L132.813 177.432L84.082 128.516L88.4143 124.207Z" fill="#2B6B82"/>
<path d="M166.504 36.9277L149.277 19.0526L158.745 9.91797L177.103 26.6999L166.504 36.9277Z" stroke="#09A2B0" stroke-width="2.91969" stroke-miterlimit="10" stroke-linecap="round" stroke-linejoin="round"/>
<path d="M14.2887 149.23L31.5154 167.103L1.50391 178.79L14.2887 149.23Z" stroke="#09A2B0" stroke-width="2.91969" stroke-miterlimit="10" stroke-linecap="round" stroke-linejoin="round"/>
<path d="M177.103 26.7005L181.114 22.8238C186.062 18.0672 186.205 10.2178 181.433 5.26879C176.702 0.349838 168.835 0.20755 163.888 4.95051L158.746 9.91856L177.103 26.7005Z" fill="#2B6B82" stroke="#09A2B0" stroke-width="2.91969" stroke-miterlimit="10" stroke-linecap="round" stroke-linejoin="round"/>
<path d="M7.80852 164.199L1.50391 178.787L16.3396 173.02L7.80852 164.199Z" fill="#2B6B82" stroke="#09A2B0" stroke-width="2.91969" stroke-miterlimit="10" stroke-linecap="round" stroke-linejoin="round"/>
<path d="M31.5154 167.101L14.2891 149.228L151.473 16.9531L169.793 33.6945L31.5154 167.101Z" fill="#2B6B82" stroke="#09A2B0" stroke-width="2.91969" stroke-miterlimit="10" stroke-linecap="round" stroke-linejoin="round"/>
<path d="M241.133 110.282C241.133 107.952 239.242 106.062 236.914 106.062C234.582 106.062 232.691 107.952 232.691 110.282C232.691 111.868 233.569 113.248 234.862 113.969L232.691 124.738H241.133L238.963 113.969C240.257 113.248 241.133 111.868 241.133 110.282Z" fill="#FEFEFE"/>
</svg>
