<svg width="20" height="24" viewBox="0 0 20 24" fill="none" xmlns="http://www.w3.org/2000/svg">
<path d="M0 9.76744C0 14.9972 9.02857 23.414 9.41143 23.7712C9.57714 23.9219 9.78857 24 10 24C10.2114 24 10.4229 23.9219 10.5886 23.7712C10.9714 23.414 20 14.9972 20 9.76744C20 4.3814 15.5143 0 10 0C4.48571 0 0 4.3814 0 9.76744ZM18.2857 9.76744C18.2857 13.2447 12.7657 19.3116 10 21.9963C7.23429 19.3116 1.71429 13.2502 1.71429 9.76744C1.71429 5.30233 5.42857 1.67442 10 1.67442C14.5714 1.67442 18.2857 5.30233 18.2857 9.76744Z" fill="black"/>
<path d="M6.85714 9.76744C6.85714 11.4586 8.26857 12.8372 10 12.8372C11.7314 12.8372 13.1429 11.4586 13.1429 9.76744C13.1429 8.07628 11.7314 6.69767 10 6.69767C8.26857 6.69767 6.85714 8.07628 6.85714 9.76744ZM11.4286 9.76744C11.4286 10.5377 10.7886 11.1628 10 11.1628C9.21143 11.1628 8.57143 10.5377 8.57143 9.76744C8.57143 8.99721 9.21143 8.37209 10 8.37209C10.7886 8.37209 11.4286 8.99721 11.4286 9.76744Z" fill="black"/>
</svg>
