<svg width="80" height="204" viewBox="0 0 80 204" fill="none" xmlns="http://www.w3.org/2000/svg">
<circle cx="40" cy="164" r="39.5" fill="#09A2B0" stroke="#09A2B0"/>
<path d="M34.6667 6C34.6667 8.94552 37.0545 11.3333 40 11.3333C42.9455 11.3333 45.3333 8.94552 45.3333 6C45.3333 3.05448 42.9455 0.666667 40 0.666667C37.0545 0.666667 34.6667 3.05448 34.6667 6ZM40 6H39V129.5H40H41V6H40Z" fill="#09A2B0"/>
<g clip-path="url(#clip0_310_235)">
<path d="M57.7299 156.271C57.5185 156.271 57.3039 156.311 57.0912 156.385V145.959C57.0912 144.879 56.2125 144 55.1322 144H24.8633C23.783 144 22.9042 144.879 22.9042 145.959V156.385C22.6915 156.311 22.477 156.271 22.2657 156.271C21.4115 156.271 20.4922 156.914 20.4922 158.325V181.257C20.4922 182.77 21.7226 184 23.2349 184H56.7609C58.2731 184 59.5036 182.77 59.5036 181.257V158.325C59.5036 156.914 58.5842 156.271 57.7299 156.271ZM25.2551 146.351H54.7404V158.008C54.7404 158.017 54.7416 158.027 54.7419 158.037L40.522 168.994C40.3998 169.088 40.2039 169.144 39.9978 169.144C39.7919 169.144 39.5961 169.088 39.4739 168.994L25.2121 158.005C25.2393 157.906 25.2551 157.802 25.2551 157.694V146.351ZM57.1527 181.257C57.1527 181.47 56.9732 181.649 56.7609 181.649H23.2349C23.0225 181.649 22.8431 181.47 22.8431 181.257V159.147L38.0389 170.856C38.5736 171.268 39.2693 171.495 39.9978 171.495C40.7263 171.495 41.422 171.268 41.9569 170.856L57.1527 159.147V181.257Z" fill="white"/>
<path d="M31.8004 151.67H36.947C37.5962 151.67 38.1223 151.144 38.1223 150.494C38.1223 149.845 37.5962 149.319 36.947 149.319H31.8004C31.1513 149.319 30.625 149.845 30.625 150.494C30.625 151.144 31.1513 151.67 31.8004 151.67Z" fill="white"/>
<path d="M31.8004 156.405H47.6297C48.2791 156.405 48.8052 155.878 48.8052 155.229C48.8052 154.58 48.2791 154.054 47.6297 154.054H31.8004C31.1513 154.054 30.625 154.58 30.625 155.229C30.625 155.878 31.1513 156.405 31.8004 156.405Z" fill="white"/>
<path d="M31.8004 161.14H47.6297C48.2791 161.14 48.8052 160.614 48.8052 159.965C48.8052 159.315 48.2791 158.789 47.6297 158.789H31.8004C31.1513 158.789 30.625 159.315 30.625 159.965C30.625 160.614 31.1513 161.14 31.8004 161.14Z" fill="white"/>
</g>
<defs>
<clipPath id="clip0_310_235">
<rect width="40" height="40" fill="white" transform="translate(20 144)"/>
</clipPath>
</defs>
</svg>
