<svg width="24" height="24" viewBox="0 0 24 24" fill="none" xmlns="http://www.w3.org/2000/svg">
<path d="M12 0C5.38317 0 0 5.38317 0 12C0 18.6168 5.38317 24 12 24C18.6168 24 24 18.6168 24 12C24 5.38317 18.6168 0 12 0ZM12 22.5C6.21028 22.5 1.5 17.7897 1.5 12C1.5 6.21028 6.21028 1.5 12 1.5C17.7897 1.5 22.5 6.21028 22.5 12C22.5 17.7897 17.7897 22.5 12 22.5ZM15.8921 14.8315C16.185 15.1244 16.185 15.5993 15.8921 15.8921C15.7456 16.0386 15.5537 16.1118 15.3618 16.1118C15.1698 16.1118 14.9779 16.0386 14.8315 15.8921L11.4697 12.5303C11.329 12.3897 11.25 12.1989 11.25 12V5.20744C11.25 4.79325 11.5858 4.45744 12 4.45744C12.4142 4.45744 12.75 4.79325 12.75 5.20744V11.6894L15.8921 14.8315Z" fill="black"/>
</svg>
