<svg width="134" height="120" viewBox="0 0 134 120" fill="none" xmlns="http://www.w3.org/2000/svg">
<path d="M32.9636 46.5161L31.4032 48.1076L49.5429 65.9822L60.2707 54.6919L58.5153 52.9399L49.5429 62.6728L32.9636 46.5161Z" fill="#286B82"/>
<path d="M41.826 84.6674V70.267H30.623V84.6674H33.4703V72.742H38.9787V84.6674H41.826Z" fill="#09A2B0"/>
<path d="M83.5547 70.267V84.6674H92.762V82.1572H86.4353V78.7188H92.263V76.2085H86.4353V72.7772H92.7353V70.267H83.5547Z" fill="#09A2B0"/>
<path d="M106.608 84.6674V70.267H95.4047V84.6674H98.252V72.742H103.76V84.6674H106.608Z" fill="#09A2B0"/>
<path d="M24.2363 108.224V101.145H18.5843V108.224H19.8588V102.21H22.9618V108.224H24.2363Z" fill="#286B82"/>
<path d="M39.3094 101.145V108.224H43.9502V107.149H40.5943V105.217H43.6835V104.142H40.5943V102.22H43.9224V101.145H39.3094Z" fill="#286B82"/>
<path d="M47.051 105.13L49.3852 108.224H50.9679L48.0449 104.373L50.8467 101.145H49.264L46.7427 104.055H46.4206V101.145H45.1358V108.224H46.4206V105.13H47.051Z" fill="#286B82"/>
<path d="M51.4314 101.145V102.22H53.6237V108.224H54.8982V102.22H57.0904V101.145H51.4314Z" fill="#286B82"/>
<path d="M66.6889 101.145V108.224H71.3297V107.149H67.9738V105.217H71.063V104.142H67.9738V102.22H71.302V101.145H66.6889Z" fill="#286B82"/>
<path d="M73.6616 108.065C74.0495 108.235 74.4928 108.32 74.9915 108.32C75.4995 108.32 75.9497 108.232 76.3422 108.054C76.737 107.877 77.0464 107.633 77.2703 107.321C77.4966 107.008 77.6097 106.653 77.6097 106.257C77.612 105.815 77.4793 105.445 77.2115 105.147C76.9459 104.848 76.5638 104.664 76.0651 104.594V104.539C76.4484 104.456 76.7578 104.28 76.9933 104.01C77.2311 103.741 77.3488 103.407 77.3465 103.008C77.3465 102.649 77.2507 102.32 77.0591 102.023C76.8675 101.726 76.5962 101.489 76.2452 101.314C75.8966 101.137 75.4856 101.048 75.0123 101.048C74.5528 101.048 74.1384 101.133 73.769 101.304C73.3996 101.472 73.104 101.707 72.8824 102.009C72.663 102.309 72.5488 102.657 72.5395 103.053H73.7759C73.7828 102.855 73.8429 102.684 73.956 102.541C74.0691 102.396 74.218 102.284 74.4028 102.206C74.5875 102.128 74.7883 102.089 75.0054 102.089C75.227 102.089 75.4198 102.13 75.5837 102.213C75.75 102.296 75.8781 102.412 75.9682 102.562C76.0605 102.71 76.1055 102.884 76.1032 103.084C76.1055 103.289 76.0536 103.47 75.9474 103.627C75.8412 103.781 75.6946 103.901 75.5075 103.986C75.3228 104.071 75.107 104.114 74.8599 104.114H74.2331V105.103H74.8599C75.1601 105.103 75.4163 105.149 75.6288 105.241C75.8435 105.333 76.0074 105.461 76.1205 105.624C76.2337 105.788 76.2891 105.977 76.2868 106.191C76.2891 106.399 76.2348 106.582 76.124 106.741C76.0132 106.9 75.8596 107.024 75.6634 107.114C75.4671 107.202 75.242 107.245 74.988 107.245C74.7502 107.245 74.5355 107.206 74.3439 107.128C74.1523 107.05 73.9987 106.94 73.8833 106.8C73.7678 106.657 73.7043 106.49 73.6928 106.298H72.3906C72.4045 106.697 72.5234 107.048 72.7473 107.353C72.9713 107.657 73.276 107.894 73.6616 108.065Z" fill="#286B82"/>
<path d="M92.0123 108.224V101.145H86.3603V108.224H87.6348V102.21H90.7378V108.224H92.0123Z" fill="#286B82"/>
<path d="M104.854 103.533H106.149C106.096 103.139 105.983 102.789 105.81 102.483C105.639 102.174 105.421 101.913 105.155 101.701C104.89 101.487 104.587 101.325 104.248 101.214C103.908 101.104 103.541 101.048 103.146 101.048C102.528 101.048 101.974 101.192 101.484 101.48C100.995 101.768 100.608 102.184 100.324 102.728C100.04 103.269 99.8979 103.922 99.8979 104.684C99.8979 105.445 100.039 106.097 100.32 106.641C100.602 107.184 100.988 107.6 101.477 107.888C101.967 108.176 102.523 108.32 103.146 108.32C103.569 108.32 103.953 108.258 104.3 108.134C104.646 108.007 104.949 107.832 105.207 107.608C105.466 107.383 105.675 107.122 105.834 106.827C105.996 106.532 106.101 106.217 106.149 105.88L104.854 105.873C104.815 106.081 104.743 106.265 104.639 106.426C104.538 106.588 104.412 106.724 104.262 106.834C104.114 106.945 103.947 107.029 103.759 107.086C103.575 107.142 103.376 107.169 103.164 107.169C102.781 107.169 102.44 107.076 102.142 106.889C101.847 106.7 101.613 106.422 101.443 106.053C101.274 105.682 101.19 105.226 101.19 104.684C101.19 104.152 101.274 103.702 101.443 103.333C101.611 102.962 101.844 102.681 102.142 102.49C102.44 102.296 102.782 102.199 103.167 102.199C103.384 102.199 103.586 102.229 103.773 102.289C103.963 102.347 104.131 102.433 104.279 102.548C104.427 102.663 104.55 102.804 104.65 102.97C104.749 103.134 104.817 103.321 104.854 103.533Z" fill="#286B82"/>
<path d="M107.228 101.145V108.224H108.513V105.217H111.8V108.224H113.088V101.145H111.8V104.142H108.513V101.145H107.228Z" fill="#286B82"/>
<path d="M126.404 102.22V101.145H121.843V108.224H123.128V102.22H126.404Z" fill="#286B82"/>
<path d="M24.2363 119.903V112.825H18.5843V119.903H19.8588V113.889H22.9618V119.903H24.2363Z" fill="#286B82"/>
<path d="M43.7926 115.213H45.0879C45.0348 114.819 44.9217 114.469 44.7485 114.162C44.5776 113.853 44.3595 113.593 44.0939 113.381C43.8284 113.167 43.526 113.004 43.1866 112.894C42.8472 112.783 42.4801 112.728 42.0853 112.728C41.4665 112.728 40.9124 112.872 40.4229 113.16C39.9334 113.448 39.5467 113.864 39.2627 114.408C38.9787 114.949 38.8367 115.601 38.8367 116.364C38.8367 117.124 38.9776 117.776 39.2592 118.32C39.5409 118.864 39.9265 119.28 40.416 119.568C40.9054 119.856 41.4619 120 42.0853 120C42.5078 120 42.8922 119.938 43.2385 119.813C43.5848 119.687 43.8873 119.511 44.1459 119.288C44.4045 119.062 44.6134 118.802 44.7727 118.507C44.9344 118.212 45.0394 117.896 45.0879 117.56L43.7926 117.553C43.7534 117.76 43.6818 117.945 43.5779 118.106C43.4763 118.267 43.3505 118.403 43.2004 118.514C43.0527 118.624 42.8853 118.708 42.6983 118.766C42.5135 118.821 42.315 118.849 42.1026 118.849C41.7193 118.849 41.3788 118.756 41.0809 118.569C40.7854 118.38 40.5522 118.101 40.3813 117.733C40.2128 117.362 40.1285 116.905 40.1285 116.364C40.1285 115.832 40.2128 115.381 40.3813 115.013C40.5499 114.642 40.7831 114.36 41.0809 114.169C41.3788 113.976 41.7205 113.879 42.106 113.879C42.3231 113.879 42.5251 113.909 42.7121 113.969C42.9014 114.026 43.07 114.113 43.2177 114.228C43.3655 114.343 43.489 114.484 43.5883 114.65C43.6876 114.813 43.7557 115.001 43.7926 115.213Z" fill="#286B82"/>
<path d="M45.7578 112.825V113.9H47.95V119.903H49.2245V113.9H51.4168V112.825H45.7578Z" fill="#286B82"/>
<path d="M64.4656 112.825V119.903H65.7505V116.896H69.0371V119.903H70.3255V112.825H69.0371V115.821H65.7505V112.825H64.4656Z" fill="#286B82"/>
<path d="M76.3037 115.213H77.5989C77.5458 114.819 77.4327 114.469 77.2595 114.162C77.0887 113.853 76.8705 113.593 76.605 113.381C76.3395 113.167 76.037 113.004 75.6976 112.894C75.3582 112.783 74.9911 112.728 74.5963 112.728C73.9775 112.728 73.4234 112.872 72.9339 113.16C72.4444 113.448 72.0577 113.864 71.7737 114.408C71.4897 114.949 71.3477 115.601 71.3477 116.364C71.3477 117.124 71.4886 117.776 71.7703 118.32C72.0519 118.864 72.4375 119.28 72.927 119.568C73.4165 119.856 73.9729 120 74.5963 120C75.0188 120 75.4032 119.938 75.7496 119.813C76.0959 119.687 76.3983 119.511 76.6569 119.288C76.9155 119.062 77.1245 118.802 77.2838 118.507C77.4454 118.212 77.5504 117.896 77.5989 117.56L76.3037 117.553C76.2644 117.76 76.1929 117.945 76.089 118.106C75.9874 118.267 75.8615 118.403 75.7115 118.514C75.5637 118.624 75.3963 118.708 75.2093 118.766C75.0246 118.821 74.826 118.849 74.6136 118.849C74.2303 118.849 73.8898 118.756 73.5919 118.569C73.2964 118.38 73.0632 118.101 72.8924 117.733C72.7238 117.362 72.6395 116.905 72.6395 116.364C72.6395 115.832 72.7238 115.381 72.8924 115.013C73.0609 114.642 73.2941 114.36 73.5919 114.169C73.8898 113.976 74.2315 113.879 74.6171 113.879C74.8341 113.879 75.0361 113.909 75.2231 113.969C75.4125 114.026 75.581 114.113 75.7288 114.228C75.8765 114.343 76.0001 114.484 76.0993 114.65C76.1986 114.813 76.2667 115.001 76.3037 115.213Z" fill="#286B82"/>
<path d="M78.2688 112.825V113.9H80.4611V119.903H81.7356V113.9H83.9278V112.825H78.2688Z" fill="#286B82"/>
<path fill-rule="evenodd" clip-rule="evenodd" d="M38.1922 104.684C38.1922 105.447 38.049 106.1 37.7627 106.644C37.4787 107.186 37.0908 107.6 36.5991 107.888C36.1096 108.176 35.5543 108.32 34.9332 108.32C34.3122 108.32 33.7557 108.176 33.2639 107.888C32.7745 107.598 32.3866 107.182 32.1003 106.641C31.8163 106.097 31.6743 105.445 31.6743 104.684C31.6743 103.922 31.8163 103.269 32.1003 102.728C32.3866 102.184 32.7745 101.768 33.2639 101.48C33.7557 101.192 34.3122 101.048 34.9332 101.048C35.5543 101.048 36.1096 101.192 36.5991 101.48C37.0908 101.768 37.4787 102.184 37.7627 102.728C38.049 103.269 38.1922 103.922 38.1922 104.684ZM36.6476 103.326C36.8161 103.695 36.9004 104.147 36.9004 104.684C36.9004 105.221 36.8161 105.675 36.6476 106.046C36.4813 106.415 36.2504 106.695 35.9549 106.886C35.6594 107.075 35.3188 107.169 34.9332 107.169C34.5477 107.169 34.2071 107.075 33.9116 106.886C33.616 106.695 33.384 106.415 33.2155 106.046C33.0492 105.675 32.9661 105.221 32.9661 104.684C32.9661 104.147 33.0492 103.695 33.2155 103.326C33.384 102.955 33.616 102.675 33.9116 102.486C34.2071 102.295 34.5477 102.199 34.9332 102.199C35.3188 102.199 35.6594 102.295 35.9549 102.486C36.2504 102.675 36.4813 102.955 36.6476 103.326Z" fill="#286B82"/>
<path fill-rule="evenodd" clip-rule="evenodd" d="M25.6756 108.224V101.145H28.3354C28.8803 101.145 29.3374 101.246 29.7069 101.449C30.0786 101.652 30.3591 101.931 30.5484 102.286C30.7401 102.638 30.8359 103.039 30.8359 103.488C30.8359 103.942 30.7401 104.346 30.5484 104.698C30.3568 105.051 30.074 105.328 29.6999 105.531C29.3259 105.732 28.8653 105.832 28.3181 105.832H26.9605V108.224H25.6756ZM28.9276 104.612C28.7244 104.722 28.4635 104.778 28.1449 104.778H26.9605V102.216H28.138C28.4589 102.216 28.721 102.271 28.9242 102.379C29.1297 102.485 29.2809 102.634 29.3779 102.825C29.4771 103.016 29.5268 103.237 29.5268 103.488C29.5268 103.74 29.4771 103.962 29.3779 104.155C29.2809 104.349 29.1308 104.501 28.9276 104.612Z" fill="#286B82"/>
<path fill-rule="evenodd" clip-rule="evenodd" d="M25.5781 119.903V112.825H28.2379C28.7828 112.825 29.2399 112.926 29.6093 113.129C29.9811 113.332 30.2616 113.61 30.4509 113.965C30.6425 114.318 30.7384 114.719 30.7384 115.168C30.7384 115.622 30.6425 116.025 30.4509 116.378C30.2593 116.73 29.9764 117.008 29.6024 117.211C29.2284 117.411 28.7678 117.511 28.2206 117.511H26.863V119.903H25.5781ZM28.8301 116.291C28.6269 116.402 28.366 116.457 28.0474 116.457H26.863V113.896H28.0405C28.3614 113.896 28.6235 113.95 28.8266 114.059C29.0321 114.165 29.1834 114.313 29.2803 114.504C29.3796 114.696 29.4292 114.917 29.4292 115.168C29.4292 115.419 29.3796 115.642 29.2803 115.835C29.1834 116.029 29.0333 116.181 28.8301 116.291Z" fill="#286B82"/>
<path fill-rule="evenodd" clip-rule="evenodd" d="M37.9971 116.364C37.9971 117.127 37.854 117.78 37.5677 118.324C37.2837 118.865 36.8958 119.28 36.404 119.568C35.9145 119.856 35.3593 120 34.7382 120C34.1171 120 33.5607 119.856 33.0689 119.568C32.5794 119.278 32.1915 118.862 31.9052 118.32C31.6212 117.776 31.4793 117.124 31.4793 116.364C31.4793 115.601 31.6212 114.949 31.9052 114.408C32.1915 113.864 32.5794 113.448 33.0689 113.16C33.5607 112.872 34.1171 112.728 34.7382 112.728C35.3593 112.728 35.9145 112.872 36.404 113.16C36.8958 113.448 37.2837 113.864 37.5677 114.408C37.854 114.949 37.9971 115.601 37.9971 116.364ZM36.4525 115.006C36.621 115.374 36.7053 115.827 36.7053 116.364C36.7053 116.901 36.621 117.355 36.4525 117.726C36.2863 118.094 36.0554 118.374 35.7598 118.566C35.4643 118.755 35.1238 118.849 34.7382 118.849C34.3526 118.849 34.0121 118.755 33.7165 118.566C33.421 118.374 33.189 118.094 33.0204 117.726C32.8542 117.355 32.7711 116.901 32.7711 116.364C32.7711 115.827 32.8542 115.374 33.0204 115.006C33.189 114.635 33.421 114.355 33.7165 114.166C34.0121 113.974 34.3526 113.879 34.7382 113.879C35.1238 113.879 35.4643 113.974 35.7598 114.166C36.0554 114.355 36.2863 114.635 36.4525 115.006Z" fill="#286B82"/>
<path fill-rule="evenodd" clip-rule="evenodd" d="M58.5142 119.903H57.1428L59.6398 112.825H61.226L63.7265 119.903H62.355L61.7674 118.158H59.1008L58.5142 119.903ZM60.4052 114.276H60.4606L61.4206 117.128H59.4469L60.4052 114.276Z" fill="#286B82"/>
<path fill-rule="evenodd" clip-rule="evenodd" d="M52.3126 119.903V112.825H54.9724C55.5173 112.825 55.9745 112.926 56.3439 113.129C56.7156 113.332 56.9961 113.61 57.1855 113.965C57.3771 114.318 57.4729 114.719 57.4729 115.168C57.4729 115.622 57.3771 116.025 57.1855 116.378C56.9938 116.73 56.711 117.008 56.337 117.211C55.9629 117.411 55.5023 117.511 54.9551 117.511H53.5975V119.903H52.3126ZM55.5647 116.291C55.3615 116.402 55.1006 116.457 54.782 116.457H53.5975V113.896H54.775C55.096 113.896 55.358 113.95 55.5612 114.059C55.7667 114.165 55.9179 114.313 56.0149 114.504C56.1142 114.696 56.1638 114.917 56.1638 115.168C56.1638 115.419 56.1142 115.642 56.0149 115.835C55.9179 116.029 55.7678 116.181 55.5647 116.291Z" fill="#286B82"/>
<path fill-rule="evenodd" clip-rule="evenodd" d="M60.4054 108.224V101.145H64.9665V102.22H61.6902V103.879H63.0582C63.6008 103.879 64.066 103.968 64.4539 104.145C64.8441 104.32 65.1431 104.568 65.3509 104.888C65.5587 105.208 65.6626 105.585 65.6626 106.018C65.6626 106.454 65.5587 106.838 65.3509 107.169C65.1431 107.499 64.8441 107.757 64.4539 107.944C64.066 108.13 63.6008 108.224 63.0582 108.224H60.4054ZM63.0582 107.173H61.6902V104.923H63.0582C63.4877 104.923 63.8167 105.029 64.0452 105.241C64.2761 105.45 64.3916 105.705 64.3916 106.005C64.3916 106.212 64.3396 106.404 64.2357 106.582C64.1341 106.759 63.9841 106.902 63.7855 107.01C63.5869 107.119 63.3445 107.173 63.0582 107.173Z" fill="#286B82"/>
<path fill-rule="evenodd" clip-rule="evenodd" d="M85.108 104.684C85.108 105.447 84.9649 106.1 84.6786 106.644C84.3946 107.186 84.0067 107.6 83.5149 107.888C83.0254 108.176 82.4702 108.32 81.8491 108.32C81.228 108.32 80.6716 108.176 80.1798 107.888C79.6903 107.598 79.3024 107.182 79.0161 106.641C78.7321 106.097 78.5902 105.445 78.5902 104.684C78.5902 103.922 78.7321 103.269 79.0161 102.728C79.3024 102.184 79.6903 101.768 80.1798 101.48C80.6716 101.192 81.228 101.048 81.8491 101.048C82.4702 101.048 83.0254 101.192 83.5149 101.48C84.0067 101.768 84.3946 102.184 84.6786 102.728C84.9649 103.269 85.108 103.922 85.108 104.684ZM83.5634 103.326C83.7319 103.695 83.8162 104.147 83.8162 104.684C83.8162 105.221 83.7319 105.675 83.5634 106.046C83.3972 106.415 83.1663 106.695 82.8708 106.886C82.5752 107.075 82.2347 107.169 81.8491 107.169C81.4635 107.169 81.123 107.075 80.8274 106.886C80.5319 106.695 80.2999 106.415 80.1313 106.046C79.9651 105.675 79.8819 105.221 79.8819 104.684C79.8819 104.147 79.9651 103.695 80.1313 103.326C80.2999 102.955 80.5319 102.675 80.8274 102.486C81.123 102.295 81.4635 102.199 81.8491 102.199C82.2347 102.199 82.5752 102.295 82.8708 102.486C83.1663 102.675 83.3972 102.955 83.5634 103.326Z" fill="#286B82"/>
<path fill-rule="evenodd" clip-rule="evenodd" d="M84.8237 112.825V119.903H87.6947C88.2373 119.903 88.6875 119.819 89.0454 119.651C89.4033 119.483 89.6711 119.253 89.8489 118.963C90.0267 118.67 90.1155 118.341 90.1155 117.975C90.1155 117.615 90.0417 117.309 89.8939 117.055C89.7461 116.802 89.5557 116.606 89.3225 116.468C89.0916 116.327 88.8503 116.25 88.5986 116.236V116.167C88.8295 116.112 89.0385 116.021 89.2255 115.894C89.4125 115.767 89.5614 115.602 89.6722 115.4C89.7831 115.195 89.8385 114.948 89.8385 114.66C89.8385 114.31 89.7531 113.996 89.5822 113.72C89.4137 113.443 89.1585 113.226 88.8168 113.067C88.4774 112.905 88.0514 112.825 87.5389 112.825H84.8237ZM86.1086 115.835H87.3796C87.6012 115.835 87.8009 115.795 87.9787 115.714C88.1565 115.631 88.2962 115.515 88.3978 115.365C88.5017 115.213 88.5536 115.033 88.5536 114.826C88.5536 114.552 88.4566 114.326 88.2627 114.148C88.0711 113.971 87.7859 113.882 87.4073 113.882H86.1086V115.835ZM87.4904 118.832H86.1086V116.758H87.525C87.7905 116.758 88.0191 116.807 88.2107 116.907C88.4024 117.003 88.5501 117.137 88.654 117.308C88.7579 117.476 88.8099 117.665 88.8099 117.874C88.8099 118.155 88.706 118.386 88.4982 118.566C88.2927 118.743 87.9568 118.832 87.4904 118.832Z" fill="#286B82"/>
<path fill-rule="evenodd" clip-rule="evenodd" d="M91.9491 119.903H90.5776L93.0747 112.825H94.6608L97.1613 119.903H95.7899L95.2022 118.158H92.5357L91.9491 119.903ZM93.84 114.276H93.8955L94.8555 117.128H92.8818L93.84 114.276Z" fill="#286B82"/>
<path fill-rule="evenodd" clip-rule="evenodd" d="M94.3625 108.224H92.991L95.488 101.145H97.0742L99.5747 108.224H98.2032L97.6156 106.478H94.949L94.3625 108.224ZM96.2534 102.597H96.3088L97.2688 105.448H95.2952L96.2534 102.597Z" fill="#286B82"/>
<path fill-rule="evenodd" clip-rule="evenodd" d="M120.726 104.684C120.726 105.447 120.583 106.1 120.296 106.644C120.012 107.186 119.624 107.6 119.133 107.888C118.643 108.176 118.088 108.32 117.467 108.32C116.846 108.32 116.289 108.176 115.798 107.888C115.308 107.598 114.92 107.182 114.634 106.641C114.35 106.097 114.208 105.445 114.208 104.684C114.208 103.922 114.35 103.269 114.634 102.728C114.92 102.184 115.308 101.768 115.798 101.48C116.289 101.192 116.846 101.048 117.467 101.048C118.088 101.048 118.643 101.192 119.133 101.48C119.624 101.768 120.012 102.184 120.296 102.728C120.583 103.269 120.726 103.922 120.726 104.684ZM119.181 103.326C119.35 103.695 119.434 104.147 119.434 104.684C119.434 105.221 119.35 105.675 119.181 106.046C119.015 106.415 118.784 106.695 118.489 106.886C118.193 107.075 117.852 107.169 117.467 107.169C117.081 107.169 116.741 107.075 116.445 106.886C116.15 106.695 115.918 106.415 115.749 106.046C115.583 105.675 115.5 105.221 115.5 104.684C115.5 104.147 115.583 103.695 115.749 103.326C115.918 102.955 116.15 102.675 116.445 102.486C116.741 102.295 117.081 102.199 117.467 102.199C117.852 102.199 118.193 102.295 118.489 102.486C118.784 102.675 119.015 102.955 119.181 103.326Z" fill="#286B82"/>
<path fill-rule="evenodd" clip-rule="evenodd" d="M133.417 104.684C133.417 105.447 133.274 106.1 132.987 106.644C132.703 107.186 132.315 107.6 131.824 107.888C131.334 108.176 130.779 108.32 130.158 108.32C129.537 108.32 128.98 108.176 128.488 107.888C127.999 107.598 127.611 107.182 127.325 106.641C127.041 106.097 126.899 105.445 126.899 104.684C126.899 103.922 127.041 103.269 127.325 102.728C127.611 102.184 127.999 101.768 128.488 101.48C128.98 101.192 129.537 101.048 130.158 101.048C130.779 101.048 131.334 101.192 131.824 101.48C132.315 101.768 132.703 102.184 132.987 102.728C133.274 103.269 133.417 103.922 133.417 104.684ZM131.872 103.326C132.041 103.695 132.125 104.147 132.125 104.684C132.125 105.221 132.041 105.675 131.872 106.046C131.706 106.415 131.475 106.695 131.179 106.886C130.884 107.075 130.543 107.169 130.158 107.169C129.772 107.169 129.432 107.075 129.136 106.886C128.841 106.695 128.608 106.415 128.44 106.046C128.274 105.675 128.191 105.221 128.191 104.684C128.191 104.147 128.274 103.695 128.44 103.326C128.608 102.955 128.841 102.675 129.136 102.486C129.432 102.295 129.772 102.199 130.158 102.199C130.543 102.199 130.884 102.295 131.179 102.486C131.475 102.675 131.706 102.955 131.872 103.326Z" fill="#286B82"/>
<path fill-rule="evenodd" clip-rule="evenodd" d="M71.3521 84.6674V70.267H80.3931V72.7772H74.2327V75.5898H76.448C77.5258 75.5898 78.4549 75.7749 79.2355 76.1453C80.0205 76.5109 80.6259 77.0289 81.0517 77.6992C81.4774 78.3696 81.6903 79.1594 81.6903 80.0688C81.6903 80.9735 81.4774 81.7728 81.0517 82.4665C80.6259 83.1556 80.0205 83.6947 79.2355 84.0838C78.4549 84.4729 77.5258 84.6674 76.448 84.6674H71.3521ZM76.448 82.2204H74.2327V77.9945H76.448C77.2197 77.9945 77.8096 78.1938 78.2176 78.5922C78.6301 78.986 78.8363 79.4688 78.8363 80.0407C78.8363 80.4345 78.7432 80.7977 78.5569 81.1306C78.3751 81.4587 78.1068 81.7236 77.752 81.9251C77.3971 82.122 76.9625 82.2204 76.448 82.2204Z" fill="#09A2B0"/>
<path fill-rule="evenodd" clip-rule="evenodd" d="M69.2183 77.4672C69.2183 79.0375 68.9367 80.3735 68.3734 81.4751C67.8146 82.5767 67.0517 83.4181 66.0849 83.9994C65.1225 84.576 64.0403 84.8643 62.8384 84.8643C61.6276 84.8643 60.541 84.5736 59.5786 83.9924C58.6162 83.4111 57.8556 82.5697 57.2967 81.4681C56.7379 80.3665 56.4585 79.0329 56.4585 77.4672C56.4585 75.8968 56.7379 74.5608 57.2967 73.4592C57.8556 72.3576 58.6162 71.5186 59.5786 70.942C60.541 70.3607 61.6276 70.0701 62.8384 70.0701C64.0403 70.0701 65.1225 70.3607 66.0849 70.942C67.0517 71.5186 67.8146 72.3576 68.3734 73.4592C68.9367 74.5608 69.2183 75.8968 69.2183 77.4672ZM65.8654 74.8937C66.1536 75.5921 66.2978 76.45 66.2978 77.4672C66.2978 78.4844 66.1536 79.3422 65.8654 80.0407C65.5815 80.7392 65.1801 81.2689 64.6612 81.6298C64.1423 81.9908 63.5347 82.1712 62.8384 82.1712C62.1421 82.1712 61.5345 81.9908 61.0156 81.6298C60.4967 81.2689 60.0931 80.7392 59.8048 80.0407C59.521 79.3422 59.379 78.4844 59.379 77.4672C59.379 76.45 59.521 75.5921 59.8048 74.8937C60.0931 74.1952 60.4967 73.6655 61.0156 73.3045C61.5345 72.9436 62.1421 72.7631 62.8384 72.7631C63.5347 72.7631 64.1423 72.9436 64.6612 73.3045C65.1801 73.6655 65.5815 74.1952 65.8654 74.8937Z" fill="#09A2B0"/>
<path fill-rule="evenodd" clip-rule="evenodd" d="M44.5686 84.6674V70.267H49.9439C50.9773 70.267 51.8577 70.4755 52.585 70.8927C53.3124 71.3053 53.8668 71.8795 54.2482 72.6155C54.634 73.3467 54.827 74.1905 54.827 75.1468C54.827 76.1031 54.6318 76.9468 54.2415 77.6781C53.8512 78.4094 53.2858 78.9789 52.5451 79.3868C51.8089 79.7946 50.9174 79.9985 49.8707 79.9985H47.4492V84.6674H44.5686ZM50.7755 77.2562C50.4163 77.4578 49.9594 77.5586 49.4051 77.5586H47.4492V72.7561H49.3917C49.9506 72.7561 50.4118 72.8569 50.7755 73.0584C51.1392 73.2553 51.4097 73.5342 51.5871 73.8952C51.769 74.2515 51.8599 74.6687 51.8599 75.1468C51.8599 75.6202 51.769 76.0398 51.5871 76.4054C51.4097 76.7664 51.1392 77.05 50.7755 77.2562Z" fill="#09A2B0"/>
<path fill-rule="evenodd" clip-rule="evenodd" d="M109.35 84.6674V70.267H114.726C115.759 70.267 116.639 70.4755 117.367 70.8927C118.094 71.3053 118.648 71.8795 119.03 72.6155C119.416 73.3467 119.609 74.1905 119.609 75.1468C119.609 76.1031 119.414 76.9468 119.023 77.6781C118.633 78.4094 118.067 78.9789 117.327 79.3868C116.591 79.7946 115.699 79.9985 114.652 79.9985H112.231V84.6674H109.35ZM115.557 77.2562C115.198 77.4578 114.741 77.5586 114.187 77.5586H112.231V72.7561H114.173C114.732 72.7561 115.194 72.8569 115.557 73.0584C115.921 73.2553 116.191 73.5342 116.369 73.8952C116.551 74.2515 116.642 74.6687 116.642 75.1468C116.642 75.6202 116.551 76.0398 116.369 76.4054C116.191 76.7664 115.921 77.05 115.557 77.2562Z" fill="#09A2B0"/>
<path fill-rule="evenodd" clip-rule="evenodd" d="M134 77.4672C134 79.0375 133.718 80.3735 133.155 81.4751C132.596 82.5767 131.833 83.4181 130.867 83.9994C129.904 84.576 128.822 84.8643 127.62 84.8643C126.409 84.8643 125.323 84.5736 124.36 83.9924C123.398 83.4111 122.637 82.5697 122.078 81.4681C121.52 80.3665 121.24 79.0329 121.24 77.4672C121.24 75.8968 121.52 74.5608 122.078 73.4592C122.637 72.3576 123.398 71.5186 124.36 70.942C125.323 70.3607 126.409 70.0701 127.62 70.0701C128.822 70.0701 129.904 70.3607 130.867 70.942C131.833 71.5186 132.596 72.3576 133.155 73.4592C133.718 74.5608 134 75.8968 134 77.4672ZM130.647 74.8937C130.935 75.5921 131.08 76.45 131.08 77.4672C131.08 78.4844 130.935 79.3422 130.647 80.0407C130.363 80.7392 129.962 81.2689 129.443 81.6298C128.924 81.9908 128.316 82.1712 127.62 82.1712C126.924 82.1712 126.316 81.9908 125.797 81.6298C125.278 81.2689 124.875 80.7392 124.587 80.0407C124.303 79.3422 124.161 78.4844 124.161 77.4672C124.161 76.45 124.303 75.5921 124.587 74.8937C124.875 74.1952 125.278 73.6655 125.797 73.3045C126.316 72.9436 126.924 72.7631 127.62 72.7631C128.316 72.7631 128.924 72.9436 129.443 73.3045C129.962 73.6655 130.363 74.1952 130.647 74.8937Z" fill="#09A2B0"/>
<path d="M87.238 45.9876L88.3037 42.3901C87.7775 42.1021 87.4278 41.5556 87.4278 40.9406C87.4278 40.0129 88.1951 39.2582 89.1383 39.2582C90.0815 39.2582 90.8487 40.0129 90.8487 40.9406C90.8487 41.5578 90.5096 42.0966 89.988 42.3841L91.0341 45.9876H87.238Z" fill="#BEE3E7"/>
<path fill-rule="evenodd" clip-rule="evenodd" d="M80.556 36.9777V48.6574H97.7205V36.9777H80.556ZM88.3037 42.3901L87.238 45.9876H91.0341L89.988 42.3841C90.5096 42.0966 90.8487 41.5578 90.8487 40.9406C90.8487 40.0129 90.0815 39.2582 89.1383 39.2582C88.1951 39.2582 87.4278 40.0129 87.4278 40.9406C87.4278 41.5556 87.7775 42.1021 88.3037 42.3901Z" fill="#09A2B0"/>
<path fill-rule="evenodd" clip-rule="evenodd" d="M85.135 66.4205L76.2773 63.59L76.9797 59.8659C75.5448 59.0439 74.2009 58.0786 72.9648 56.9823L69.6498 58.8273L64.1509 51.3415L66.9154 48.7379C66.2393 47.2303 65.72 45.6619 65.3641 44.0528L61.594 43.6008L61.5542 34.319L65.3219 33.8346C65.493 33.0299 65.7056 32.2306 65.957 31.4469C66.2085 30.6631 66.5007 29.8894 66.8297 29.1351L64.0447 26.5566L64.9729 25.27L57.7351 18.4098L27.1121 48.1076V88.1734H87.968L94.9898 96.9331H18.7249V56.2414L12.0932 62.6728L0 66.9554L5.07132 55.665L56.7277 5.89432L60.1007 2.6736C60.1007 2.6736 63.9767 -2.14922 67.8777 1.16002C71.7788 4.46925 67.2926 9.14111 67.2926 9.14111L63.8803 12.4503L73.1292 20.5603C74.2672 19.5716 75.4954 18.6907 76.8008 17.9269L76.0657 14.2051L84.8988 11.2992L86.5234 14.7227C88.1675 14.5468 89.8234 14.5401 91.4699 14.7028L93.0655 11.2643L101.923 14.0948L101.221 17.8188C102.656 18.6408 104 19.606 105.236 20.7024L108.551 18.8573L114.05 26.3432L111.285 28.9468C111.961 30.4544 112.481 32.0228 112.836 33.6319L116.606 34.084L116.646 43.3659L112.879 43.8503C112.707 44.655 112.495 45.4542 112.243 46.238C111.992 47.0216 111.7 47.7955 111.371 48.5498L114.156 51.1281L108.721 58.6607L105.389 56.8432C104.163 57.9467 102.828 58.9224 101.4 59.7577L102.135 63.4796L93.3017 66.3855L91.6771 62.962C90.033 63.1379 88.3771 63.1445 86.7306 62.9819L85.135 66.4205ZM94.0342 24.1906C85.888 21.5875 77.1384 26.0837 74.5299 34.2137C71.9215 42.3437 76.427 51.0758 84.5731 53.6789C92.7193 56.2821 101.469 51.7858 104.077 43.6559C106.686 35.5259 102.18 26.7938 94.0342 24.1906Z" fill="#286B82"/>
<path d="M89.1383 26.8554C85.2664 26.8554 82.1164 29.8972 82.1164 33.6361V35.8098H84.6698V33.6361C84.6698 31.253 86.6704 29.3211 89.1383 29.3211C91.6061 29.3211 93.6067 31.253 93.6067 33.6361V35.8098H96.1601V33.6361C96.1601 29.8972 93.0101 26.8554 89.1383 26.8554Z" fill="#09A2B0"/>
</svg>
